G04 Layer_Color=65535*
%FSLAX24Y24*%
%MOIN*%
G70*
G01*
G75*
%ADD12C,0.0100*%
%ADD20C,0.0079*%
%ADD21C,0.0059*%
%ADD22C,0.0060*%
G36*
X14170Y27895D02*
X14157Y27845D01*
X14142Y27797D01*
X14127Y27753D01*
X14114Y27710D01*
X14099Y27671D01*
X14085Y27634D01*
X14072Y27601D01*
X14059Y27571D01*
X14048Y27545D01*
X14037Y27523D01*
X14029Y27505D01*
X14022Y27490D01*
X14016Y27479D01*
X14012Y27471D01*
X14011Y27469D01*
X13970Y27549D01*
X13937Y27630D01*
X13905Y27710D01*
X13892Y27749D01*
X13881Y27786D01*
X13872Y27819D01*
X13863Y27851D01*
X13855Y27879D01*
X13848Y27901D01*
X13842Y27921D01*
X13840Y27934D01*
X13837Y27943D01*
Y27947D01*
X14183D01*
X14170Y27895D01*
D02*
G37*
G36*
X12254Y27669D02*
X12234Y27636D01*
X12215Y27605D01*
X12195Y27573D01*
X12178Y27545D01*
X12160Y27519D01*
X12143Y27497D01*
X12128Y27475D01*
X12115Y27457D01*
X12102Y27440D01*
X12093Y27427D01*
X12084Y27416D01*
X12078Y27408D01*
X12074Y27403D01*
X12073Y27401D01*
X12023Y27458D01*
X11978Y27518D01*
X11937Y27573D01*
X11900Y27627D01*
X11886Y27651D01*
X11871Y27673D01*
X11860Y27692D01*
X11849Y27710D01*
X11841Y27723D01*
X11836Y27732D01*
X11832Y27740D01*
X11830Y27742D01*
X12295D01*
X12254Y27669D01*
D02*
G37*
G36*
X4478Y27677D02*
X4504Y27669D01*
X4526Y27662D01*
X4545Y27651D01*
X4559Y27642D01*
X4570Y27632D01*
X4578Y27625D01*
X4580Y27623D01*
X4596Y27601D01*
X4609Y27577D01*
X4619Y27553D01*
X4626Y27529D01*
X4630Y27508D01*
X4632Y27492D01*
Y27481D01*
Y27479D01*
Y27477D01*
X4630Y27440D01*
X4624Y27408D01*
X4615Y27381D01*
X4606Y27358D01*
X4596Y27340D01*
X4587Y27329D01*
X4582Y27320D01*
X4580Y27318D01*
X4559Y27299D01*
X4539Y27286D01*
X4519Y27277D01*
X4498Y27271D01*
X4480Y27268D01*
X4467Y27264D01*
X4454D01*
X4426Y27266D01*
X4400Y27273D01*
X4378Y27283D01*
X4359Y27292D01*
X4345Y27303D01*
X4334Y27310D01*
X4326Y27318D01*
X4324Y27320D01*
X4308Y27344D01*
X4295Y27369D01*
X4285Y27395D01*
X4280Y27421D01*
X4276Y27445D01*
X4272Y27464D01*
Y27471D01*
Y27477D01*
Y27479D01*
Y27481D01*
X4274Y27506D01*
X4280Y27532D01*
X4285Y27555D01*
X4295Y27575D01*
X4302Y27592D01*
X4308Y27605D01*
X4313Y27612D01*
X4315Y27616D01*
X4334Y27636D01*
X4356Y27653D01*
X4378Y27664D01*
X4400Y27671D01*
X4419Y27675D01*
X4435Y27679D01*
X4450D01*
X4478Y27677D01*
D02*
G37*
G36*
X4472Y28182D02*
X4495Y28177D01*
X4513Y28171D01*
X4530Y28164D01*
X4543Y28154D01*
X4552Y28149D01*
X4558Y28143D01*
X4559Y28141D01*
X4574Y28125D01*
X4583Y28106D01*
X4591Y28088D01*
X4596Y28069D01*
X4600Y28054D01*
X4602Y28041D01*
Y28034D01*
Y28030D01*
X4600Y28004D01*
X4595Y27980D01*
X4589Y27962D01*
X4582Y27945D01*
X4572Y27930D01*
X4567Y27921D01*
X4561Y27916D01*
X4559Y27914D01*
X4543Y27901D01*
X4524Y27890D01*
X4506Y27882D01*
X4487Y27879D01*
X4471Y27875D01*
X4458Y27873D01*
X4446D01*
X4422Y27875D01*
X4400Y27879D01*
X4382Y27886D01*
X4365Y27893D01*
X4352Y27901D01*
X4343Y27908D01*
X4337Y27912D01*
X4335Y27914D01*
X4322Y27930D01*
X4311Y27949D01*
X4304Y27967D01*
X4300Y27986D01*
X4297Y28003D01*
X4295Y28015D01*
Y28025D01*
Y28028D01*
X4297Y28054D01*
X4300Y28077D01*
X4308Y28095D01*
X4315Y28112D01*
X4322Y28125D01*
X4330Y28134D01*
X4334Y28140D01*
X4335Y28141D01*
X4352Y28156D01*
X4371Y28165D01*
X4389Y28173D01*
X4408Y28178D01*
X4424Y28182D01*
X4437Y28184D01*
X4448D01*
X4472Y28182D01*
D02*
G37*
G36*
X14529Y27081D02*
X14479Y27094D01*
X14433Y27110D01*
X14388Y27131D01*
X14346Y27153D01*
X14305Y27177D01*
X14268Y27201D01*
X14235Y27225D01*
X14203Y27251D01*
X14173Y27275D01*
X14149Y27297D01*
X14127Y27320D01*
X14111Y27338D01*
X14096Y27353D01*
X14086Y27366D01*
X14079Y27373D01*
X14077Y27375D01*
X14101Y27408D01*
X14124Y27447D01*
X14148Y27488D01*
X14170Y27532D01*
X14210Y27621D01*
X14229Y27666D01*
X14246Y27710D01*
X14262Y27753D01*
X14277Y27792D01*
X14290Y27827D01*
X14299Y27856D01*
X14309Y27882D01*
X14314Y27901D01*
X14316Y27908D01*
X14318Y27914D01*
X14320Y27916D01*
Y27917D01*
X14392Y27967D01*
X14270Y28093D01*
X14194Y28023D01*
X13727D01*
Y28256D01*
X13779Y28265D01*
X13829Y28273D01*
X13875Y28280D01*
X13918Y28288D01*
X13957Y28293D01*
X13992Y28301D01*
X14024Y28306D01*
X14053Y28310D01*
X14079Y28315D01*
X14101Y28319D01*
X14120Y28323D01*
X14135Y28325D01*
X14148Y28326D01*
X14155Y28328D01*
X14161Y28330D01*
X14162D01*
X14207Y28339D01*
X14249Y28345D01*
X14286Y28351D01*
X14320Y28352D01*
X14347Y28354D01*
X14359Y28356D01*
X14384D01*
X14268Y28525D01*
X14207Y28491D01*
X14179Y28478D01*
X14155Y28465D01*
X14133Y28456D01*
X14116Y28449D01*
X14105Y28443D01*
X14103Y28441D01*
X14101D01*
X14083Y28434D01*
X14061Y28426D01*
X14033Y28417D01*
X14005Y28408D01*
X13974Y28399D01*
X13940Y28388D01*
X13874Y28369D01*
X13842Y28360D01*
X13813Y28352D01*
X13785Y28345D01*
X13761Y28338D01*
X13740Y28332D01*
X13724Y28328D01*
X13714Y28326D01*
X13711Y28325D01*
X13587Y28380D01*
X13589Y28280D01*
X13590Y28232D01*
Y28186D01*
X13592Y28140D01*
Y28097D01*
Y28058D01*
X13594Y28021D01*
Y27988D01*
Y27956D01*
Y27930D01*
Y27908D01*
Y27890D01*
Y27877D01*
Y27869D01*
Y27866D01*
X13592Y27777D01*
X13587Y27690D01*
X13583Y27649D01*
X13579Y27610D01*
X13574Y27573D01*
X13570Y27540D01*
X13566Y27508D01*
X13561Y27481D01*
X13557Y27457D01*
X13553Y27434D01*
X13550Y27418D01*
X13548Y27407D01*
X13546Y27397D01*
Y27395D01*
X13535Y27353D01*
X13522Y27312D01*
X13505Y27271D01*
X13489Y27233D01*
X13468Y27196D01*
X13448Y27160D01*
X13428Y27127D01*
X13405Y27096D01*
X13385Y27066D01*
X13366Y27042D01*
X13348Y27018D01*
X13331Y26999D01*
X13318Y26984D01*
X13316Y26982D01*
X13316Y26975D01*
Y26960D01*
X13307Y26957D01*
X13337Y26927D01*
X13374Y26957D01*
X13409Y26986D01*
X13440Y27014D01*
X13468Y27044D01*
X13494Y27070D01*
X13516Y27096D01*
X13537Y27121D01*
X13553Y27144D01*
X13570Y27166D01*
X13581Y27184D01*
X13592Y27201D01*
X13600Y27216D01*
X13607Y27229D01*
X13611Y27236D01*
X13614Y27242D01*
Y27244D01*
X13639Y27305D01*
X13659Y27368D01*
X13674Y27427D01*
X13681Y27455D01*
X13687Y27482D01*
X13690Y27506D01*
X13696Y27529D01*
X13698Y27549D01*
X13701Y27566D01*
X13703Y27581D01*
Y27590D01*
X13705Y27597D01*
Y27599D01*
X13713Y27669D01*
X13718Y27736D01*
X13720Y27766D01*
X13722Y27795D01*
X13724Y27821D01*
X13726Y27845D01*
Y27867D01*
Y27888D01*
X13727Y27906D01*
Y27919D01*
Y27932D01*
Y27940D01*
Y27945D01*
Y27947D01*
X13768D01*
X13777Y27888D01*
X13787Y27830D01*
X13798Y27775D01*
X13811Y27721D01*
X13824Y27671D01*
X13838Y27625D01*
X13853Y27581D01*
X13866Y27540D01*
X13881Y27505D01*
X13894Y27471D01*
X13905Y27444D01*
X13916Y27421D01*
X13924Y27401D01*
X13931Y27388D01*
X13935Y27381D01*
X13937Y27377D01*
X13900Y27334D01*
X13861Y27294D01*
X13820Y27257D01*
X13777Y27220D01*
X13735Y27186D01*
X13690Y27155D01*
X13648Y27125D01*
X13607Y27099D01*
X13568Y27075D01*
X13533Y27053D01*
X13500Y27034D01*
X13472Y27020D01*
X13448Y27009D01*
X13431Y26999D01*
X13420Y26994D01*
X13418Y26992D01*
X13416D01*
X13440Y26947D01*
X13503Y26968D01*
X13564Y26992D01*
X13620Y27018D01*
X13674Y27044D01*
X13724Y27073D01*
X13770Y27101D01*
X13813Y27129D01*
X13851Y27157D01*
X13885Y27183D01*
X13914Y27208D01*
X13940Y27231D01*
X13962Y27249D01*
X13979Y27266D01*
X13992Y27277D01*
X13999Y27286D01*
X14001Y27288D01*
X14033Y27244D01*
X14064Y27201D01*
X14096Y27164D01*
X14129Y27129D01*
X14161Y27097D01*
X14192Y27070D01*
X14222Y27044D01*
X14251Y27022D01*
X14277Y27001D01*
X14301Y26984D01*
X14323Y26972D01*
X14342Y26960D01*
X14359Y26951D01*
X14370Y26946D01*
X14377Y26942D01*
X14379Y26940D01*
X14384Y26953D01*
X14392Y26966D01*
X14412Y26984D01*
X14436Y26999D01*
X14462Y27010D01*
X14488Y27018D01*
X14509Y27022D01*
X14518D01*
X14523Y27023D01*
X14529D01*
Y26905D01*
X13168D01*
X13307Y26957D01*
X13300Y26964D01*
X13302Y26966D01*
X13309Y26973D01*
X13316Y26982D01*
X13315Y26996D01*
Y27016D01*
Y27040D01*
X13313Y27068D01*
Y27097D01*
Y27129D01*
Y27160D01*
X13311Y27231D01*
Y27305D01*
Y27381D01*
Y27458D01*
X13309Y27532D01*
Y27603D01*
Y27636D01*
Y27669D01*
Y27699D01*
Y27727D01*
Y27753D01*
Y27775D01*
Y27795D01*
Y27812D01*
Y27825D01*
Y27836D01*
Y27842D01*
Y27843D01*
X13333Y27804D01*
X13355Y27766D01*
X13374Y27730D01*
X13389Y27699D01*
X13400Y27673D01*
X13409Y27653D01*
X13413Y27645D01*
X13415Y27640D01*
X13416Y27638D01*
Y27636D01*
X13422Y27621D01*
X13426Y27610D01*
X13437Y27590D01*
X13446Y27575D01*
X13455Y27566D01*
X13463Y27558D01*
X13470Y27556D01*
X13474Y27555D01*
X13476D01*
X13483Y27556D01*
X13490Y27562D01*
X13496Y27569D01*
X13502Y27579D01*
X13507Y27588D01*
X13511Y27595D01*
X13515Y27601D01*
Y27603D01*
X13522Y27621D01*
X13526Y27638D01*
X13529Y27653D01*
X13533Y27666D01*
Y27675D01*
X13535Y27682D01*
Y27688D01*
Y27690D01*
X13533Y27706D01*
X13529Y27723D01*
X13524Y27740D01*
X13516Y27753D01*
X13509Y27764D01*
X13503Y27773D01*
X13500Y27779D01*
X13498Y27780D01*
X13490Y27790D01*
X13479Y27799D01*
X13466Y27810D01*
X13453Y27821D01*
X13422Y27842D01*
X13391Y27864D01*
X13359Y27882D01*
X13346Y27891D01*
X13333Y27897D01*
X13324Y27904D01*
X13316Y27908D01*
X13311Y27912D01*
X13309D01*
Y28064D01*
X13583D01*
X13448Y28215D01*
X13365Y28140D01*
X13309D01*
Y28395D01*
X13365Y28454D01*
X13168Y28552D01*
X13170Y28482D01*
X13172Y28410D01*
X13174Y28341D01*
Y28308D01*
X13176Y28276D01*
Y28247D01*
Y28221D01*
Y28199D01*
Y28178D01*
Y28162D01*
Y28151D01*
Y28141D01*
Y28140D01*
X12894D01*
X12963Y28049D01*
X13026Y28064D01*
X13163D01*
X13146Y27990D01*
X13128Y27916D01*
X13107Y27845D01*
X13087Y27779D01*
X13065Y27714D01*
X13043Y27653D01*
X13020Y27595D01*
X12998Y27542D01*
X12978Y27494D01*
X12957Y27451D01*
X12941Y27412D01*
X12926Y27381D01*
X12913Y27355D01*
X12902Y27336D01*
X12900Y27331D01*
X12896Y27325D01*
X12894Y27323D01*
Y27321D01*
X12937Y27295D01*
X12968Y27334D01*
X12998Y27375D01*
X13026Y27416D01*
X13050Y27457D01*
X13070Y27497D01*
X13091Y27536D01*
X13107Y27573D01*
X13124Y27610D01*
X13137Y27642D01*
X13148Y27673D01*
X13155Y27699D01*
X13163Y27723D01*
X13168Y27742D01*
X13172Y27756D01*
X13176Y27764D01*
Y27669D01*
Y27577D01*
Y27488D01*
X13174Y27407D01*
Y27329D01*
Y27258D01*
X13172Y27194D01*
Y27134D01*
Y27083D01*
X13170Y27036D01*
Y26997D01*
Y26964D01*
X13168Y26938D01*
Y26920D01*
Y26914D01*
Y26909D01*
Y26907D01*
Y26905D01*
X4030D01*
Y27455D01*
X4032Y27419D01*
X4036Y27388D01*
X4043Y27357D01*
X4052Y27329D01*
X4061Y27301D01*
X4073Y27277D01*
X4086Y27255D01*
X4098Y27234D01*
X4111Y27218D01*
X4124Y27201D01*
X4136Y27188D01*
X4145Y27177D01*
X4154Y27168D01*
X4161Y27162D01*
X4165Y27158D01*
X4167Y27157D01*
X4189Y27140D01*
X4213Y27127D01*
X4237Y27114D01*
X4261Y27105D01*
X4309Y27088D01*
X4356Y27077D01*
X4378Y27073D01*
X4396Y27071D01*
X4413Y27070D01*
X4428Y27068D01*
X4441Y27066D01*
X4458D01*
X4493Y27068D01*
X4524Y27071D01*
X4556Y27077D01*
X4585Y27083D01*
X4611Y27092D01*
X4635Y27101D01*
X4659Y27110D01*
X4680Y27121D01*
X4698Y27133D01*
X4713Y27142D01*
X4728Y27151D01*
X4739Y27160D01*
X4748Y27166D01*
X4754Y27171D01*
X4757Y27175D01*
X4759Y27177D01*
X4780Y27199D01*
X4796Y27221D01*
X4813Y27245D01*
X4826Y27270D01*
X4837Y27294D01*
X4846Y27318D01*
X4859Y27364D01*
X4865Y27384D01*
X4868Y27403D01*
X4870Y27421D01*
X4872Y27436D01*
X4874Y27449D01*
Y27458D01*
Y27464D01*
Y27466D01*
X4872Y27505D01*
X4865Y27540D01*
X4857Y27573D01*
X4846Y27601D01*
X4837Y27623D01*
X4828Y27640D01*
X4820Y27651D01*
X4819Y27655D01*
X4796Y27684D01*
X4770Y27710D01*
X4743Y27732D01*
X4717Y27749D01*
X4693Y27764D01*
X4674Y27775D01*
X4667Y27779D01*
X4661Y27780D01*
X4657Y27782D01*
X4656D01*
X4685Y27797D01*
X4711Y27814D01*
X4733Y27830D01*
X4752Y27849D01*
X4767Y27864D01*
X4776Y27877D01*
X4783Y27884D01*
X4785Y27888D01*
X4802Y27916D01*
X4813Y27943D01*
X4822Y27969D01*
X4828Y27993D01*
X4831Y28015D01*
X4833Y28032D01*
Y28043D01*
Y28045D01*
Y28047D01*
X4831Y28073D01*
X4830Y28099D01*
X4817Y28145D01*
X4802Y28184D01*
X4783Y28219D01*
X4763Y28247D01*
X4756Y28258D01*
X4748Y28267D01*
X4741Y28275D01*
X4735Y28280D01*
X4733Y28282D01*
X4732Y28284D01*
X4711Y28301D01*
X4691Y28315D01*
X4667Y28328D01*
X4645Y28339D01*
X4596Y28356D01*
X4550Y28367D01*
X4530Y28371D01*
X4509Y28373D01*
X4493Y28375D01*
X4476Y28376D01*
X4465Y28378D01*
X4446D01*
X4413Y28376D01*
X4382Y28375D01*
X4352Y28369D01*
X4324Y28363D01*
X4298Y28356D01*
X4274Y28349D01*
X4254Y28339D01*
X4235Y28332D01*
X4217Y28323D01*
X4202Y28314D01*
X4191Y28306D01*
X4180Y28299D01*
X4173Y28293D01*
X4167Y28288D01*
X4163Y28286D01*
X4161Y28284D01*
X4145Y28265D01*
X4128Y28247D01*
X4115Y28227D01*
X4104Y28208D01*
X4086Y28167D01*
X4074Y28130D01*
X4067Y28097D01*
X4065Y28082D01*
X4063Y28071D01*
X4061Y28060D01*
Y28053D01*
Y28049D01*
Y28047D01*
X4063Y28015D01*
X4069Y27988D01*
X4074Y27960D01*
X4084Y27938D01*
X4091Y27917D01*
X4097Y27904D01*
X4102Y27895D01*
X4104Y27891D01*
X4123Y27867D01*
X4145Y27845D01*
X4167Y27827D01*
X4191Y27810D01*
X4211Y27799D01*
X4228Y27790D01*
X4239Y27784D01*
X4241Y27782D01*
X4243D01*
X4204Y27762D01*
X4171Y27742D01*
X4143Y27719D01*
X4121Y27697D01*
X4102Y27677D01*
X4089Y27662D01*
X4082Y27651D01*
X4080Y27649D01*
Y27647D01*
X4063Y27614D01*
X4050Y27581D01*
X4043Y27547D01*
X4036Y27518D01*
X4032Y27494D01*
X4030Y27473D01*
Y28567D01*
X11734D01*
X11730Y28523D01*
X11726Y28480D01*
X11721Y28438D01*
X11717Y28402D01*
X11714Y28371D01*
X11712Y28358D01*
Y28347D01*
X11710Y28338D01*
X11708Y28330D01*
Y28326D01*
Y28325D01*
X11702Y28280D01*
X11695Y28239D01*
X11689Y28204D01*
X11684Y28173D01*
X11680Y28147D01*
X11676Y28128D01*
X11675Y28121D01*
X11673Y28115D01*
Y28114D01*
Y28112D01*
X11391D01*
X11399Y28123D01*
X11406Y28136D01*
X11414Y28151D01*
X11421Y28167D01*
X11438Y28202D01*
X11454Y28239D01*
X11469Y28275D01*
X11475Y28289D01*
X11480Y28302D01*
X11486Y28314D01*
X11488Y28323D01*
X11491Y28328D01*
Y28330D01*
X11549Y28384D01*
X11380Y28476D01*
X11375Y28450D01*
X11367Y28425D01*
X11351Y28367D01*
X11332Y28310D01*
X11312Y28254D01*
X11303Y28230D01*
X11293Y28206D01*
X11284Y28186D01*
X11277Y28167D01*
X11271Y28152D01*
X11266Y28141D01*
X11264Y28134D01*
X11262Y28132D01*
X11204Y28090D01*
X11312Y27973D01*
X11375Y28036D01*
X11664D01*
X11652Y27984D01*
X11639Y27936D01*
X11628Y27890D01*
X11615Y27847D01*
X11604Y27806D01*
X11593Y27767D01*
X11582Y27732D01*
X11571Y27701D01*
X11562Y27673D01*
X11552Y27649D01*
X11545Y27627D01*
X11538Y27610D01*
X11532Y27595D01*
X11528Y27584D01*
X11527Y27579D01*
X11525Y27577D01*
X11495Y27512D01*
X11464Y27451D01*
X11432Y27395D01*
X11417Y27371D01*
X11404Y27349D01*
X11391Y27327D01*
X11378Y27310D01*
X11369Y27294D01*
X11360Y27281D01*
X11353Y27270D01*
X11347Y27262D01*
X11343Y27257D01*
X11341Y27255D01*
X11303Y27203D01*
X11262Y27157D01*
X11225Y27114D01*
X11192Y27079D01*
X11177Y27062D01*
X11164Y27049D01*
X11151Y27036D01*
X11142Y27027D01*
X11132Y27020D01*
X11127Y27014D01*
X11123Y27010D01*
X11121Y27009D01*
X11149Y26968D01*
X11192Y26996D01*
X11232Y27025D01*
X11271Y27055D01*
X11306Y27084D01*
X11340Y27114D01*
X11371Y27144D01*
X11399Y27171D01*
X11425Y27199D01*
X11447Y27223D01*
X11465Y27247D01*
X11482Y27268D01*
X11497Y27284D01*
X11506Y27299D01*
X11515Y27310D01*
X11519Y27318D01*
X11521Y27320D01*
X11569Y27397D01*
X11612Y27471D01*
X11647Y27543D01*
X11664Y27577D01*
X11676Y27608D01*
X11689Y27636D01*
X11701Y27662D01*
X11710Y27686D01*
X11717Y27705D01*
X11723Y27721D01*
X11726Y27732D01*
X11730Y27740D01*
Y27742D01*
X11765D01*
X11801Y27656D01*
X11838Y27579D01*
X11858Y27542D01*
X11876Y27506D01*
X11895Y27473D01*
X11913Y27444D01*
X11932Y27416D01*
X11947Y27392D01*
X11962Y27371D01*
X11974Y27353D01*
X11984Y27338D01*
X11993Y27329D01*
X11997Y27321D01*
X11999Y27320D01*
X11960Y27283D01*
X11917Y27245D01*
X11871Y27210D01*
X11821Y27179D01*
X11769Y27147D01*
X11717Y27118D01*
X11665Y27092D01*
X11615Y27066D01*
X11567Y27044D01*
X11523Y27025D01*
X11480Y27009D01*
X11445Y26994D01*
X11415Y26983D01*
X11404Y26979D01*
X11393Y26975D01*
X11386Y26972D01*
X11380Y26970D01*
X11377Y26968D01*
X11375D01*
X11388Y26918D01*
X11467Y26936D01*
X11541Y26957D01*
X11612Y26981D01*
X11678Y27005D01*
X11739Y27031D01*
X11797Y27057D01*
X11849Y27084D01*
X11895Y27109D01*
X11937Y27134D01*
X11974Y27157D01*
X12006Y27177D01*
X12032Y27196D01*
X12052Y27212D01*
X12067Y27223D01*
X12074Y27231D01*
X12078Y27233D01*
X12115Y27199D01*
X12154Y27168D01*
X12195Y27138D01*
X12237Y27109D01*
X12282Y27083D01*
X12324Y27059D01*
X12369Y27034D01*
X12409Y27014D01*
X12448Y26996D01*
X12485Y26979D01*
X12519Y26966D01*
X12548Y26955D01*
X12571Y26946D01*
X12589Y26938D01*
X12600Y26935D01*
X12602Y26933D01*
X12604D01*
X12619Y26959D01*
X12639Y26981D01*
X12661Y26999D01*
X12685Y27012D01*
X12707Y27022D01*
X12726Y27029D01*
X12733Y27031D01*
X12739D01*
X12741Y27033D01*
X12743D01*
Y27081D01*
X12674Y27096D01*
X12609Y27110D01*
X12550Y27129D01*
X12493Y27147D01*
X12441Y27168D01*
X12391Y27186D01*
X12347Y27207D01*
X12308Y27227D01*
X12272Y27245D01*
X12241Y27264D01*
X12213Y27279D01*
X12191Y27294D01*
X12174Y27305D01*
X12161Y27314D01*
X12154Y27320D01*
X12152Y27321D01*
X12210Y27386D01*
X12261Y27453D01*
X12308Y27518D01*
X12330Y27549D01*
X12350Y27579D01*
X12367Y27606D01*
X12384Y27632D01*
X12397Y27655D01*
X12408Y27675D01*
X12417Y27690D01*
X12424Y27703D01*
X12428Y27710D01*
X12430Y27712D01*
X12495Y27771D01*
X12356Y27893D01*
X12302Y27817D01*
X11741D01*
X11763Y27895D01*
X11773Y27932D01*
X11780Y27966D01*
X11786Y27993D01*
X11788Y28006D01*
X11789Y28015D01*
X11791Y28025D01*
X11793Y28030D01*
Y28034D01*
Y28036D01*
X12715D01*
X12567Y28210D01*
X12461Y28112D01*
X11802D01*
X11806Y28125D01*
X11810Y28141D01*
X11813Y28162D01*
X11819Y28186D01*
X11823Y28210D01*
X11828Y28238D01*
X11839Y28291D01*
X11843Y28317D01*
X11849Y28343D01*
X11852Y28367D01*
X11856Y28388D01*
X11860Y28404D01*
X11862Y28417D01*
X11863Y28425D01*
Y28428D01*
X11913Y28491D01*
X11734Y28567D01*
X14529D01*
Y27081D01*
D02*
G37*
%LPC*%
G36*
X12093Y28532D02*
X12067Y28489D01*
X12099Y28460D01*
X12128Y28432D01*
X12154Y28406D01*
X12178Y28382D01*
X12200Y28360D01*
X12219Y28338D01*
X12235Y28319D01*
X12250Y28301D01*
X12263Y28286D01*
X12274Y28271D01*
X12284Y28260D01*
X12291Y28251D01*
X12295Y28241D01*
X12298Y28236D01*
X12302Y28234D01*
Y28232D01*
X12317Y28208D01*
X12330Y28189D01*
X12343Y28177D01*
X12354Y28167D01*
X12361Y28162D01*
X12369Y28160D01*
X12372Y28158D01*
X12374D01*
X12384Y28160D01*
X12393Y28165D01*
X12400Y28173D01*
X12408Y28182D01*
X12413Y28191D01*
X12417Y28199D01*
X12421Y28204D01*
Y28206D01*
X12428Y28225D01*
X12432Y28239D01*
X12435Y28252D01*
X12439Y28262D01*
Y28269D01*
X12441Y28276D01*
Y28278D01*
Y28280D01*
X12437Y28301D01*
X12430Y28321D01*
X12421Y28339D01*
X12408Y28356D01*
X12395Y28369D01*
X12385Y28380D01*
X12378Y28388D01*
X12374Y28389D01*
X12361Y28401D01*
X12343Y28412D01*
X12324Y28423D01*
X12304Y28436D01*
X12258Y28460D01*
X12210Y28482D01*
X12165Y28502D01*
X12145Y28510D01*
X12128Y28517D01*
X12113Y28523D01*
X12102Y28528D01*
X12095Y28530D01*
X12093Y28532D01*
D02*
G37*
G36*
X8126Y28354D02*
X7477D01*
X7351Y27686D01*
X7549Y27658D01*
X7565Y27675D01*
X7582Y27690D01*
X7599Y27703D01*
X7615Y27714D01*
X7647Y27730D01*
X7676Y27742D01*
X7702Y27747D01*
X7721Y27751D01*
X7728Y27753D01*
X7739D01*
X7769Y27751D01*
X7797Y27743D01*
X7821Y27734D01*
X7841Y27723D01*
X7856Y27710D01*
X7869Y27701D01*
X7876Y27693D01*
X7878Y27692D01*
X7897Y27668D01*
X7910Y27640D01*
X7919Y27610D01*
X7925Y27581D01*
X7930Y27555D01*
X7932Y27534D01*
Y27525D01*
Y27519D01*
Y27516D01*
Y27514D01*
X7930Y27469D01*
X7925Y27431D01*
X7915Y27399D01*
X7906Y27373D01*
X7895Y27351D01*
X7887Y27336D01*
X7880Y27329D01*
X7878Y27325D01*
X7858Y27305D01*
X7836Y27288D01*
X7813Y27277D01*
X7793Y27270D01*
X7775Y27266D01*
X7760Y27264D01*
X7751Y27262D01*
X7747D01*
X7723Y27264D01*
X7699Y27270D01*
X7678Y27277D01*
X7662Y27286D01*
X7647Y27295D01*
X7636Y27303D01*
X7628Y27308D01*
X7626Y27310D01*
X7610Y27331D01*
X7595Y27351D01*
X7584Y27373D01*
X7577Y27394D01*
X7571Y27412D01*
X7567Y27429D01*
X7565Y27438D01*
Y27442D01*
X7321Y27416D01*
X7327Y27386D01*
X7332Y27358D01*
X7351Y27308D01*
X7371Y27264D01*
X7382Y27245D01*
X7395Y27227D01*
X7406Y27212D01*
X7415Y27199D01*
X7427Y27188D01*
X7434Y27177D01*
X7441Y27170D01*
X7447Y27164D01*
X7451Y27162D01*
X7452Y27160D01*
X7475Y27144D01*
X7497Y27129D01*
X7521Y27116D01*
X7545Y27107D01*
X7595Y27088D01*
X7639Y27077D01*
X7662Y27073D01*
X7680Y27071D01*
X7699Y27070D01*
X7713Y27068D01*
X7726Y27066D01*
X7743D01*
X7784Y27068D01*
X7823Y27073D01*
X7858Y27081D01*
X7891Y27092D01*
X7923Y27105D01*
X7950Y27120D01*
X7976Y27134D01*
X8000Y27151D01*
X8021Y27166D01*
X8039Y27181D01*
X8056Y27196D01*
X8069Y27208D01*
X8078Y27220D01*
X8086Y27227D01*
X8089Y27233D01*
X8091Y27234D01*
X8108Y27258D01*
X8123Y27283D01*
X8134Y27307D01*
X8145Y27332D01*
X8161Y27381D01*
X8173Y27425D01*
X8176Y27444D01*
X8178Y27462D01*
X8182Y27479D01*
Y27494D01*
X8184Y27505D01*
Y27512D01*
Y27518D01*
Y27519D01*
X8182Y27555D01*
X8178Y27588D01*
X8173Y27619D01*
X8165Y27649D01*
X8158Y27675D01*
X8147Y27701D01*
X8137Y27725D01*
X8126Y27745D01*
X8115Y27764D01*
X8106Y27780D01*
X8095Y27795D01*
X8087Y27806D01*
X8080Y27816D01*
X8074Y27823D01*
X8071Y27827D01*
X8069Y27829D01*
X8047Y27849D01*
X8024Y27867D01*
X8000Y27884D01*
X7976Y27899D01*
X7954Y27910D01*
X7930Y27919D01*
X7887Y27934D01*
X7867Y27940D01*
X7849Y27943D01*
X7832Y27945D01*
X7819Y27947D01*
X7808Y27949D01*
X7791D01*
X7760Y27947D01*
X7728Y27941D01*
X7701Y27936D01*
X7675Y27929D01*
X7654Y27919D01*
X7638Y27914D01*
X7626Y27908D01*
X7625Y27906D01*
X7623D01*
X7662Y28125D01*
X8126D01*
Y28354D01*
D02*
G37*
G36*
X10697Y28504D02*
X10586Y28399D01*
X9403D01*
X9477Y28301D01*
X9509Y28308D01*
X9540Y28314D01*
X9568Y28317D01*
X9594Y28321D01*
X9616D01*
X9633Y28323D01*
X9801D01*
Y27843D01*
X9307D01*
X9381Y27745D01*
X9413Y27753D01*
X9444Y27758D01*
X9472Y27762D01*
X9498Y27766D01*
X9520D01*
X9537Y27767D01*
X9801D01*
X9800Y27716D01*
X9794Y27666D01*
X9787Y27618D01*
X9779Y27575D01*
X9770Y27532D01*
X9759Y27494D01*
X9750Y27458D01*
X9738Y27427D01*
X9727Y27397D01*
X9716Y27371D01*
X9707Y27351D01*
X9698Y27332D01*
X9690Y27318D01*
X9685Y27308D01*
X9681Y27301D01*
X9679Y27299D01*
X9657Y27266D01*
X9633Y27233D01*
X9577Y27171D01*
X9520Y27114D01*
X9492Y27090D01*
X9465Y27066D01*
X9439Y27044D01*
X9415Y27025D01*
X9392Y27009D01*
X9374Y26994D01*
X9357Y26983D01*
X9346Y26975D01*
X9337Y26970D01*
X9335Y26968D01*
X9370Y26925D01*
X9426Y26957D01*
X9477Y26988D01*
X9526Y27020D01*
X9570Y27051D01*
X9609Y27081D01*
X9646Y27110D01*
X9677Y27140D01*
X9705Y27168D01*
X9729Y27192D01*
X9751Y27216D01*
X9768Y27236D01*
X9783Y27253D01*
X9794Y27268D01*
X9801Y27277D01*
X9805Y27284D01*
X9807Y27286D01*
X9829Y27325D01*
X9850Y27364D01*
X9866Y27405D01*
X9881Y27445D01*
X9894Y27486D01*
X9905Y27525D01*
X9914Y27564D01*
X9922Y27601D01*
X9927Y27636D01*
X9931Y27668D01*
X9935Y27695D01*
X9937Y27719D01*
X9938Y27740D01*
X9940Y27755D01*
Y27764D01*
Y27767D01*
X10329D01*
Y27307D01*
Y27249D01*
X10327Y27188D01*
Y27127D01*
X10325Y27070D01*
Y27042D01*
X10323Y27018D01*
Y26996D01*
Y26977D01*
X10322Y26962D01*
Y26949D01*
Y26942D01*
Y26940D01*
X10475Y26986D01*
X10473Y27034D01*
X10471Y27083D01*
Y27127D01*
X10470Y27168D01*
Y27184D01*
Y27201D01*
Y27216D01*
Y27229D01*
Y27238D01*
Y27245D01*
Y27249D01*
Y27251D01*
Y27767D01*
X10949D01*
X10779Y27954D01*
X10662Y27843D01*
X10470D01*
Y28323D01*
X10860D01*
X10697Y28504D01*
D02*
G37*
G36*
X8941Y28378D02*
X8741D01*
X8722Y28336D01*
X8698Y28297D01*
X8672Y28260D01*
X8646Y28230D01*
X8624Y28206D01*
X8604Y28188D01*
X8596Y28180D01*
X8591Y28175D01*
X8587Y28173D01*
X8585Y28171D01*
X8545Y28141D01*
X8506Y28115D01*
X8471Y28095D01*
X8439Y28080D01*
X8413Y28069D01*
X8395Y28060D01*
X8387Y28058D01*
X8382Y28056D01*
X8380Y28054D01*
X8378D01*
Y27832D01*
X8445Y27858D01*
X8504Y27886D01*
X8532Y27901D01*
X8558Y27917D01*
X8582Y27932D01*
X8604Y27947D01*
X8624Y27962D01*
X8643Y27975D01*
X8658Y27986D01*
X8670Y27997D01*
X8682Y28006D01*
X8689Y28012D01*
X8693Y28015D01*
X8695Y28017D01*
Y27090D01*
X8941D01*
Y28378D01*
D02*
G37*
G36*
X6655Y28395D02*
X6633D01*
X6584Y28393D01*
X6536Y28388D01*
X6494Y28378D01*
X6451Y28367D01*
X6414Y28354D01*
X6377Y28339D01*
X6346Y28323D01*
X6316Y28306D01*
X6288Y28289D01*
X6266Y28273D01*
X6246Y28258D01*
X6229Y28245D01*
X6216Y28234D01*
X6207Y28225D01*
X6201Y28219D01*
X6199Y28217D01*
X6170Y28182D01*
X6146Y28145D01*
X6123Y28106D01*
X6105Y28065D01*
X6088Y28023D01*
X6075Y27982D01*
X6064Y27941D01*
X6055Y27903D01*
X6048Y27864D01*
X6044Y27830D01*
X6040Y27799D01*
X6036Y27773D01*
Y27751D01*
X6035Y27734D01*
Y27723D01*
Y27721D01*
Y27719D01*
X6036Y27664D01*
X6042Y27612D01*
X6049Y27562D01*
X6061Y27518D01*
X6072Y27475D01*
X6086Y27434D01*
X6101Y27399D01*
X6116Y27368D01*
X6131Y27338D01*
X6146Y27312D01*
X6161Y27292D01*
X6172Y27273D01*
X6183Y27260D01*
X6190Y27249D01*
X6196Y27244D01*
X6198Y27242D01*
X6229Y27210D01*
X6262Y27184D01*
X6297Y27160D01*
X6333Y27142D01*
X6368Y27125D01*
X6403Y27110D01*
X6436Y27099D01*
X6468Y27090D01*
X6499Y27083D01*
X6527Y27077D01*
X6553Y27073D01*
X6573Y27071D01*
X6592Y27070D01*
X6605Y27068D01*
X6616D01*
X6655Y27070D01*
X6690Y27071D01*
X6725Y27077D01*
X6757Y27084D01*
X6786Y27092D01*
X6814Y27099D01*
X6840Y27109D01*
X6864Y27120D01*
X6884Y27129D01*
X6903Y27138D01*
X6919Y27146D01*
X6932Y27153D01*
X6943Y27160D01*
X6951Y27166D01*
X6955Y27168D01*
X6956Y27170D01*
X6980Y27190D01*
X7003Y27212D01*
X7043Y27262D01*
X7077Y27314D01*
X7103Y27364D01*
X7114Y27388D01*
X7123Y27410D01*
X7130Y27431D01*
X7138Y27447D01*
X7143Y27462D01*
X7147Y27473D01*
X7149Y27481D01*
Y27482D01*
X6897Y27560D01*
X6882Y27510D01*
X6866Y27468D01*
X6849Y27432D01*
X6831Y27403D01*
X6816Y27381D01*
X6803Y27366D01*
X6794Y27357D01*
X6790Y27353D01*
X6760Y27331D01*
X6731Y27316D01*
X6701Y27305D01*
X6675Y27295D01*
X6651Y27292D01*
X6631Y27290D01*
X6623Y27288D01*
X6614D01*
X6588Y27290D01*
X6564Y27292D01*
X6520Y27305D01*
X6481Y27320D01*
X6449Y27340D01*
X6423Y27358D01*
X6405Y27373D01*
X6397Y27381D01*
X6392Y27386D01*
X6390Y27388D01*
X6388Y27390D01*
X6373Y27410D01*
X6360Y27434D01*
X6347Y27460D01*
X6338Y27488D01*
X6323Y27545D01*
X6312Y27603D01*
X6309Y27630D01*
X6307Y27655D01*
X6303Y27679D01*
Y27699D01*
X6301Y27714D01*
Y27727D01*
Y27736D01*
Y27738D01*
X6303Y27780D01*
X6305Y27819D01*
X6309Y27854D01*
X6314Y27888D01*
X6322Y27917D01*
X6329Y27945D01*
X6336Y27969D01*
X6346Y27991D01*
X6353Y28010D01*
X6360Y28027D01*
X6368Y28040D01*
X6375Y28051D01*
X6381Y28060D01*
X6384Y28065D01*
X6388Y28069D01*
Y28071D01*
X6405Y28090D01*
X6423Y28106D01*
X6442Y28119D01*
X6462Y28130D01*
X6501Y28149D01*
X6538Y28162D01*
X6570Y28169D01*
X6584Y28171D01*
X6595Y28173D01*
X6607Y28175D01*
X6620D01*
X6657Y28173D01*
X6690Y28165D01*
X6719Y28156D01*
X6745Y28145D01*
X6766Y28134D01*
X6781Y28125D01*
X6790Y28117D01*
X6794Y28115D01*
X6818Y28093D01*
X6840Y28067D01*
X6856Y28041D01*
X6869Y28015D01*
X6879Y27993D01*
X6884Y27977D01*
X6888Y27969D01*
Y27964D01*
X6890Y27962D01*
Y27960D01*
X7145Y28021D01*
X7127Y28075D01*
X7106Y28121D01*
X7084Y28162D01*
X7064Y28195D01*
X7043Y28221D01*
X7036Y28232D01*
X7029Y28241D01*
X7023Y28247D01*
X7018Y28252D01*
X7016Y28256D01*
X7014D01*
X6986Y28280D01*
X6955Y28302D01*
X6925Y28321D01*
X6894Y28336D01*
X6860Y28351D01*
X6829Y28362D01*
X6797Y28371D01*
X6768Y28378D01*
X6740Y28384D01*
X6714Y28388D01*
X6692Y28391D01*
X6671Y28393D01*
X6655Y28395D01*
D02*
G37*
G36*
X5429Y28378D02*
X5420D01*
X5387Y28376D01*
X5357Y28373D01*
X5328Y28367D01*
X5300Y28360D01*
X5274Y28351D01*
X5250Y28339D01*
X5226Y28330D01*
X5207Y28319D01*
X5189Y28306D01*
X5172Y28297D01*
X5159Y28286D01*
X5146Y28276D01*
X5137Y28269D01*
X5131Y28264D01*
X5128Y28260D01*
X5126Y28258D01*
X5105Y28234D01*
X5089Y28210D01*
X5072Y28184D01*
X5059Y28158D01*
X5048Y28132D01*
X5039Y28104D01*
X5026Y28054D01*
X5020Y28032D01*
X5017Y28010D01*
X5015Y27991D01*
X5013Y27975D01*
X5011Y27960D01*
Y27951D01*
Y27943D01*
Y27941D01*
X5013Y27908D01*
X5017Y27875D01*
X5020Y27843D01*
X5028Y27816D01*
X5037Y27788D01*
X5046Y27764D01*
X5055Y27740D01*
X5067Y27719D01*
X5076Y27701D01*
X5085Y27684D01*
X5094Y27671D01*
X5104Y27658D01*
X5111Y27651D01*
X5115Y27643D01*
X5118Y27640D01*
X5120Y27638D01*
X5141Y27618D01*
X5163Y27599D01*
X5185Y27584D01*
X5207Y27571D01*
X5229Y27560D01*
X5250Y27549D01*
X5291Y27536D01*
X5326Y27527D01*
X5341Y27525D01*
X5353Y27523D01*
X5365Y27521D01*
X5379D01*
X5405Y27523D01*
X5429Y27527D01*
X5452Y27531D01*
X5474Y27538D01*
X5515Y27555D01*
X5548Y27575D01*
X5574Y27595D01*
X5585Y27605D01*
X5594Y27612D01*
X5602Y27619D01*
X5607Y27625D01*
X5609Y27627D01*
X5611Y27629D01*
X5607Y27590D01*
X5603Y27553D01*
X5600Y27519D01*
X5594Y27490D01*
X5589Y27464D01*
X5583Y27440D01*
X5577Y27419D01*
X5572Y27401D01*
X5564Y27384D01*
X5561Y27371D01*
X5555Y27360D01*
X5552Y27353D01*
X5548Y27345D01*
X5544Y27342D01*
X5542Y27338D01*
X5522Y27316D01*
X5500Y27299D01*
X5479Y27286D01*
X5459Y27279D01*
X5440Y27273D01*
X5428Y27271D01*
X5418Y27270D01*
X5415D01*
X5394Y27271D01*
X5374Y27275D01*
X5359Y27281D01*
X5344Y27286D01*
X5333Y27292D01*
X5326Y27297D01*
X5320Y27301D01*
X5318Y27303D01*
X5305Y27318D01*
X5296Y27334D01*
X5289Y27353D01*
X5283Y27371D01*
X5278Y27386D01*
X5276Y27399D01*
X5274Y27408D01*
Y27412D01*
X5037Y27384D01*
X5042Y27355D01*
X5050Y27329D01*
X5057Y27303D01*
X5067Y27281D01*
X5076Y27258D01*
X5085Y27238D01*
X5096Y27221D01*
X5105Y27205D01*
X5117Y27192D01*
X5124Y27179D01*
X5133Y27170D01*
X5141Y27160D01*
X5146Y27155D01*
X5152Y27149D01*
X5154Y27147D01*
X5155Y27146D01*
X5174Y27131D01*
X5192Y27120D01*
X5233Y27099D01*
X5272Y27086D01*
X5311Y27075D01*
X5346Y27070D01*
X5361Y27068D01*
X5374D01*
X5383Y27066D01*
X5398D01*
X5437Y27068D01*
X5472Y27073D01*
X5505Y27081D01*
X5539Y27090D01*
X5568Y27103D01*
X5596Y27116D01*
X5622Y27129D01*
X5644Y27144D01*
X5664Y27158D01*
X5683Y27171D01*
X5698Y27186D01*
X5711Y27197D01*
X5722Y27207D01*
X5729Y27214D01*
X5733Y27220D01*
X5735Y27221D01*
X5759Y27253D01*
X5777Y27288D01*
X5796Y27327D01*
X5811Y27366D01*
X5824Y27408D01*
X5835Y27451D01*
X5842Y27492D01*
X5850Y27534D01*
X5855Y27573D01*
X5859Y27608D01*
X5862Y27642D01*
X5864Y27671D01*
X5866Y27695D01*
Y27714D01*
Y27719D01*
Y27725D01*
Y27727D01*
Y27729D01*
X5864Y27792D01*
X5861Y27849D01*
X5855Y27903D01*
X5846Y27953D01*
X5837Y27997D01*
X5827Y28038D01*
X5814Y28075D01*
X5803Y28108D01*
X5792Y28136D01*
X5781Y28160D01*
X5770Y28180D01*
X5761Y28197D01*
X5751Y28210D01*
X5746Y28219D01*
X5742Y28225D01*
X5740Y28227D01*
X5716Y28252D01*
X5690Y28276D01*
X5664Y28297D01*
X5639Y28314D01*
X5611Y28328D01*
X5585Y28341D01*
X5559Y28351D01*
X5533Y28360D01*
X5511Y28365D01*
X5489Y28371D01*
X5470Y28375D01*
X5453Y28376D01*
X5439D01*
X5429Y28378D01*
D02*
G37*
%LPD*%
G36*
X10329Y27843D02*
X9940D01*
Y28323D01*
X10329D01*
Y27843D01*
D02*
G37*
G36*
X5435Y28171D02*
X5459Y28164D01*
X5481Y28154D01*
X5500Y28141D01*
X5515Y28128D01*
X5526Y28119D01*
X5533Y28112D01*
X5535Y28108D01*
X5553Y28080D01*
X5566Y28051D01*
X5577Y28019D01*
X5583Y27990D01*
X5587Y27962D01*
X5590Y27941D01*
Y27932D01*
Y27927D01*
Y27923D01*
Y27921D01*
X5589Y27882D01*
X5583Y27849D01*
X5574Y27821D01*
X5566Y27797D01*
X5557Y27780D01*
X5548Y27767D01*
X5542Y27758D01*
X5540Y27756D01*
X5522Y27738D01*
X5502Y27725D01*
X5481Y27714D01*
X5463Y27708D01*
X5446Y27705D01*
X5433Y27703D01*
X5426Y27701D01*
X5422D01*
X5396Y27703D01*
X5372Y27710D01*
X5352Y27719D01*
X5333Y27730D01*
X5318Y27740D01*
X5309Y27749D01*
X5302Y27756D01*
X5300Y27758D01*
X5283Y27782D01*
X5272Y27812D01*
X5263Y27842D01*
X5257Y27873D01*
X5254Y27899D01*
X5252Y27921D01*
Y27930D01*
Y27936D01*
Y27940D01*
Y27941D01*
X5254Y27984D01*
X5259Y28021D01*
X5266Y28053D01*
X5274Y28077D01*
X5281Y28095D01*
X5289Y28108D01*
X5294Y28117D01*
X5296Y28119D01*
X5315Y28138D01*
X5333Y28151D01*
X5352Y28162D01*
X5370Y28167D01*
X5385Y28171D01*
X5398Y28175D01*
X5409D01*
X5435Y28171D01*
D02*
G37*
D12*
X12964Y3910D02*
G03*
X14736Y3910I886J0D01*
G01*
Y6430D02*
G03*
X12964Y6430I-886J0D01*
G01*
X350Y2752D02*
Y7498D01*
X700Y2752D02*
Y7498D01*
X28D02*
X5122D01*
X4Y7474D02*
X28Y7498D01*
X4Y2760D02*
Y7474D01*
Y2742D02*
X5122D01*
X5120Y7490D02*
X5122Y2750D01*
X14736Y3910D02*
Y6430D01*
X12964Y3910D02*
Y6430D01*
X6040Y9080D02*
Y9380D01*
Y9080D02*
X11140D01*
Y9380D01*
Y11380D01*
X6040D02*
X11140D01*
X6040Y9380D02*
Y11380D01*
Y9380D02*
X11140D01*
X6040Y15325D02*
Y15625D01*
Y15325D02*
X11140D01*
Y15625D01*
Y17625D01*
X6040D02*
X11140D01*
X6040Y15625D02*
Y17625D01*
Y15625D02*
X11140D01*
X6040Y21570D02*
Y21870D01*
Y21570D02*
X11140D01*
Y21870D01*
Y23870D01*
X6040D02*
X11140D01*
X6040Y21870D02*
Y23870D01*
Y21870D02*
X11140D01*
X10280Y26090D02*
X10147D01*
X10080Y26157D01*
Y26290D01*
X10147Y26357D01*
X10280D01*
X10347Y26290D01*
Y26223D01*
X10080D01*
X10480Y26357D02*
Y26090D01*
Y26223D01*
X10547Y26290D01*
X10613Y26357D01*
X10680D01*
X10880Y26490D02*
Y26090D01*
Y26290D01*
X10946Y26357D01*
X11080D01*
X11146Y26290D01*
Y26090D01*
X11280Y26357D02*
Y26157D01*
X11346Y26090D01*
X11546D01*
Y26357D01*
X11746Y26090D02*
X11879D01*
X11946Y26157D01*
Y26290D01*
X11879Y26357D01*
X11746D01*
X11679Y26290D01*
Y26157D01*
X11746Y26090D01*
X12079Y26357D02*
Y26157D01*
X12146Y26090D01*
X12346D01*
Y26023D01*
X12279Y25957D01*
X12213D01*
X12346Y26090D02*
Y26357D01*
X12546D02*
X12679D01*
X12746Y26290D01*
Y26090D01*
X12546D01*
X12479Y26157D01*
X12546Y26223D01*
X12746D01*
X12879Y26090D02*
Y26357D01*
X13079D01*
X13146Y26290D01*
Y26090D01*
D20*
X19770Y25533D02*
G03*
X20270Y25533I250J0D01*
G01*
X24270Y8100D02*
X25270D01*
X24270D02*
Y16100D01*
X25270D01*
Y8100D02*
Y16100D01*
X24270Y17100D02*
X25270D01*
X24270D02*
Y25100D01*
X25270D01*
Y17100D02*
Y25100D01*
X26670Y23100D02*
Y25100D01*
X25670D02*
X26670D01*
X25670Y23100D02*
Y25100D01*
Y23100D02*
X26670D01*
X17481Y25533D02*
X19770D01*
X20270D02*
X22559D01*
X17481Y4667D02*
X22559D01*
X17481D02*
Y25533D01*
X22559Y4667D02*
Y25533D01*
X1200Y11750D02*
X2200D01*
X1200D02*
Y22750D01*
X2200D01*
Y22000D02*
Y22750D01*
Y11750D02*
Y22000D01*
X14680Y16100D02*
X15680D01*
Y8100D02*
Y16100D01*
X14680Y8100D02*
X15680D01*
X14680D02*
Y16100D01*
Y25100D02*
X15680D01*
Y17100D02*
Y25100D01*
X14680Y17100D02*
X15680D01*
X14680D02*
Y25100D01*
D21*
X14925Y3638D02*
Y4130D01*
Y3638D02*
X15555D01*
Y4130D01*
X14925Y4563D02*
Y5055D01*
X15555D01*
Y4563D02*
Y5055D01*
Y6217D02*
Y6709D01*
X14925D02*
X15555D01*
X14925Y6217D02*
Y6709D01*
X15555Y5291D02*
Y5783D01*
X14925Y5291D02*
X15555D01*
X14925D02*
Y5783D01*
X13725Y14718D02*
Y16135D01*
Y14718D02*
X14355D01*
X13725Y16135D02*
X14355D01*
Y14718D02*
Y16135D01*
Y17210D02*
Y17702D01*
X13725D02*
X14355D01*
X13725Y17210D02*
Y17702D01*
X14355Y16285D02*
Y16777D01*
X13725Y16285D02*
X14355D01*
X13725D02*
Y16777D01*
X10061Y8785D02*
X10553D01*
X10061Y8155D02*
Y8785D01*
Y8155D02*
X10553D01*
X10987Y8785D02*
X11479D01*
Y8155D02*
Y8785D01*
X10987Y8155D02*
X11479D01*
X6541Y12375D02*
X7033D01*
X6541Y11745D02*
Y12375D01*
Y11745D02*
X7033D01*
X7467Y12375D02*
X7959D01*
Y11745D02*
Y12375D01*
X7467Y11745D02*
X7959D01*
X10061Y14990D02*
X10553D01*
X10061Y14360D02*
Y14990D01*
Y14360D02*
X10553D01*
X10987Y14990D02*
X11479D01*
Y14360D02*
Y14990D01*
X10987Y14360D02*
X11479D01*
X6541Y14990D02*
X7033D01*
X6541Y14360D02*
Y14990D01*
Y14360D02*
X7033D01*
X7467Y14990D02*
X7959D01*
Y14360D02*
Y14990D01*
X7467Y14360D02*
X7959D01*
X10061Y21195D02*
X10553D01*
X10061Y20565D02*
Y21195D01*
Y20565D02*
X10553D01*
X10987Y21195D02*
X11479D01*
Y20565D02*
Y21195D01*
X10987Y20565D02*
X11479D01*
X6541Y21205D02*
X7033D01*
X6541Y20575D02*
Y21205D01*
Y20575D02*
X7033D01*
X7467Y21205D02*
X7959D01*
Y20575D02*
Y21205D01*
X7467Y20575D02*
X7959D01*
D22*
X1640Y7910D02*
Y8360D01*
X1865D01*
X1940Y8285D01*
Y8135D01*
X1865Y8060D01*
X1640D01*
X2315Y8360D02*
X2165D01*
X2090Y8285D01*
Y7985D01*
X2165Y7910D01*
X2315D01*
X2390Y7985D01*
Y8285D01*
X2315Y8360D01*
X2540D02*
Y7910D01*
X2690Y8060D01*
X2840Y7910D01*
Y8360D01*
X3289D02*
X2990D01*
Y7910D01*
X3289D01*
X2990Y8135D02*
X3140D01*
X3439Y7910D02*
Y8360D01*
X3664D01*
X3739Y8285D01*
Y8135D01*
X3664Y8060D01*
X3439D01*
X3589D02*
X3739Y7910D01*
X25960Y11750D02*
X25510D01*
Y11975D01*
X25585Y12050D01*
X25735D01*
X25810Y11975D01*
Y11750D01*
X25960Y12500D02*
Y12200D01*
X25660Y12500D01*
X25585D01*
X25510Y12425D01*
Y12275D01*
X25585Y12200D01*
X25920Y20750D02*
X25470D01*
Y20975D01*
X25545Y21050D01*
X25695D01*
X25770Y20975D01*
Y20750D01*
X25920Y21200D02*
Y21350D01*
Y21275D01*
X25470D01*
X25545Y21200D01*
X27410Y23660D02*
X26960D01*
Y23885D01*
X27035Y23960D01*
X27185D01*
X27260Y23885D01*
Y23660D01*
X26960Y24410D02*
X27035Y24260D01*
X27185Y24110D01*
X27335D01*
X27410Y24185D01*
Y24335D01*
X27335Y24410D01*
X27260D01*
X27185Y24335D01*
Y24110D01*
X18060Y26220D02*
Y25845D01*
X18135Y25770D01*
X18285D01*
X18360Y25845D01*
Y26220D01*
X18735Y25770D02*
Y26220D01*
X18510Y25995D01*
X18810D01*
X15885Y4110D02*
X15810Y4035D01*
Y3885D01*
X15885Y3810D01*
X16185D01*
X16260Y3885D01*
Y4035D01*
X16185Y4110D01*
X15885Y4260D02*
X15810Y4335D01*
Y4485D01*
X15885Y4560D01*
X15960D01*
X16035Y4485D01*
Y4410D01*
Y4485D01*
X16110Y4560D01*
X16185D01*
X16260Y4485D01*
Y4335D01*
X16185Y4260D01*
X15825Y5840D02*
X15750Y5765D01*
Y5615D01*
X15825Y5540D01*
X16125D01*
X16200Y5615D01*
Y5765D01*
X16125Y5840D01*
X16200Y6290D02*
Y5990D01*
X15900Y6290D01*
X15825D01*
X15750Y6215D01*
Y6065D01*
X15825Y5990D01*
X12260Y4870D02*
X12335D01*
X12485Y5020D01*
X12335Y5170D01*
X12260D01*
X12485Y5020D02*
X12710D01*
Y5320D02*
Y5470D01*
Y5395D01*
X12260D01*
X12335Y5320D01*
X2920Y17080D02*
X2470D01*
Y17305D01*
X2545Y17380D01*
X2695D01*
X2770Y17305D01*
Y17080D01*
X2470Y17830D02*
Y17530D01*
X2695D01*
X2620Y17680D01*
Y17755D01*
X2695Y17830D01*
X2845D01*
X2920Y17755D01*
Y17605D01*
X2845Y17530D01*
X14350Y11750D02*
X13900D01*
Y11975D01*
X13975Y12050D01*
X14125D01*
X14200Y11975D01*
Y11750D01*
X13975Y12200D02*
X13900Y12275D01*
Y12425D01*
X13975Y12500D01*
X14050D01*
X14125Y12425D01*
Y12350D01*
Y12425D01*
X14200Y12500D01*
X14275D01*
X14350Y12425D01*
Y12275D01*
X14275Y12200D01*
X13010Y15190D02*
Y15640D01*
X13235D01*
X13310Y15565D01*
Y15415D01*
X13235Y15340D01*
X13010D01*
X13160D02*
X13310Y15190D01*
X13460D02*
X13610D01*
X13535D01*
Y15640D01*
X13460Y15565D01*
X13330Y17105D02*
X13255Y17180D01*
X13105D01*
X13030Y17105D01*
Y16805D01*
X13105Y16730D01*
X13255D01*
X13330Y16805D01*
X13480Y16730D02*
X13630D01*
X13555D01*
Y17180D01*
X13480Y17105D01*
X14510Y20730D02*
X14060D01*
Y20955D01*
X14135Y21030D01*
X14285D01*
X14360Y20955D01*
Y20730D01*
X14510Y21405D02*
X14060D01*
X14285Y21180D01*
Y21480D01*
X8550Y12100D02*
Y11725D01*
X8625Y11650D01*
X8775D01*
X8850Y11725D01*
Y12100D01*
X9000Y11650D02*
X9150D01*
X9075D01*
Y12100D01*
X9000Y12025D01*
X11045Y7480D02*
X10970Y7405D01*
Y7255D01*
X11045Y7180D01*
X11345D01*
X11420Y7255D01*
Y7405D01*
X11345Y7480D01*
X11045Y7630D02*
X10970Y7705D01*
Y7855D01*
X11045Y7930D01*
X11120D01*
X11195Y7855D01*
X11270Y7930D01*
X11345D01*
X11420Y7855D01*
Y7705D01*
X11345Y7630D01*
X11270D01*
X11195Y7705D01*
X11120Y7630D01*
X11045D01*
X11195Y7705D02*
Y7855D01*
X7240Y13005D02*
X7165Y13080D01*
X7015D01*
X6940Y13005D01*
Y12705D01*
X7015Y12630D01*
X7165D01*
X7240Y12705D01*
X7390D02*
X7465Y12630D01*
X7615D01*
X7690Y12705D01*
Y13005D01*
X7615Y13080D01*
X7465D01*
X7390Y13005D01*
Y12930D01*
X7465Y12855D01*
X7690D01*
X10720Y14105D02*
X10645Y14180D01*
X10495D01*
X10420Y14105D01*
Y13805D01*
X10495Y13730D01*
X10645D01*
X10720Y13805D01*
X11170Y14180D02*
X11020Y14105D01*
X10870Y13955D01*
Y13805D01*
X10945Y13730D01*
X11095D01*
X11170Y13805D01*
Y13880D01*
X11095Y13955D01*
X10870D01*
X8250Y18390D02*
Y18015D01*
X8325Y17940D01*
X8475D01*
X8550Y18015D01*
Y18390D01*
X9000Y17940D02*
X8700D01*
X9000Y18240D01*
Y18315D01*
X8925Y18390D01*
X8775D01*
X8700Y18315D01*
X7170Y14135D02*
X7095Y14210D01*
X6945D01*
X6870Y14135D01*
Y13835D01*
X6945Y13760D01*
X7095D01*
X7170Y13835D01*
X7320Y14210D02*
X7620D01*
Y14135D01*
X7320Y13835D01*
Y13760D01*
X10700Y20315D02*
X10625Y20390D01*
X10475D01*
X10400Y20315D01*
Y20015D01*
X10475Y19940D01*
X10625D01*
X10700Y20015D01*
X11075Y19940D02*
Y20390D01*
X10850Y20165D01*
X11150D01*
X7170Y20395D02*
X7095Y20470D01*
X6945D01*
X6870Y20395D01*
Y20095D01*
X6945Y20020D01*
X7095D01*
X7170Y20095D01*
X7620Y20470D02*
X7320D01*
Y20245D01*
X7470Y20320D01*
X7545D01*
X7620Y20245D01*
Y20095D01*
X7545Y20020D01*
X7395D01*
X7320Y20095D01*
X8300Y24710D02*
Y24335D01*
X8375Y24260D01*
X8525D01*
X8600Y24335D01*
Y24710D01*
X8750Y24635D02*
X8825Y24710D01*
X8975D01*
X9050Y24635D01*
Y24560D01*
X8975Y24485D01*
X8900D01*
X8975D01*
X9050Y24410D01*
Y24335D01*
X8975Y24260D01*
X8825D01*
X8750Y24335D01*
M02*
