G04 Layer_Color=16711935*
%FSLAX24Y24*%
%MOIN*%
G70*
G01*
G75*
%ADD12C,0.0100*%
%ADD22C,0.0060*%
D12*
X29528Y29134D02*
G03*
X29134Y29528I-394J0D01*
G01*
X394D02*
G03*
X0Y29134I0J-394D01*
G01*
X29134Y0D02*
G03*
X29528Y394I0J394D01*
G01*
X0D02*
G03*
X394Y0I394J0D01*
G01*
X-830Y29528D02*
X244D01*
X-830Y0D02*
X244D01*
X-730Y17463D02*
Y29528D01*
Y0D02*
Y11745D01*
X-930Y28928D02*
X-730Y29528D01*
X-530Y28928D01*
X-730Y0D02*
X-530Y600D01*
X-930D02*
X-730Y0D01*
X29134Y-830D02*
Y-150D01*
X394Y-830D02*
Y-150D01*
X17463Y-730D02*
X29134D01*
X394D02*
X11745D01*
X28534Y-530D02*
X29134Y-730D01*
X28534Y-930D02*
X29134Y-730D01*
X394D02*
X994Y-930D01*
X394Y-730D02*
X994Y-530D01*
X29528Y394D02*
Y29134D01*
X394Y29528D02*
X29134D01*
X394Y0D02*
X29134D01*
X0Y394D02*
Y29134D01*
D22*
X-970Y11905D02*
Y12305D01*
X-870D01*
X-470Y11905D01*
X-370D01*
X-970Y12904D02*
Y12504D01*
X-670D01*
X-770Y12704D01*
Y12804D01*
X-670Y12904D01*
X-470D01*
X-370Y12804D01*
Y12604D01*
X-470Y12504D01*
X-370Y13104D02*
X-470D01*
Y13204D01*
X-370D01*
Y13104D01*
X-870Y13604D02*
X-970Y13704D01*
Y13904D01*
X-870Y14004D01*
X-470D01*
X-370Y13904D01*
Y13704D01*
X-470Y13604D01*
X-870D01*
Y14204D02*
X-970Y14304D01*
Y14504D01*
X-870Y14604D01*
X-470D01*
X-370Y14504D01*
Y14304D01*
X-470Y14204D01*
X-870D01*
X-370Y15603D02*
X-570Y15404D01*
X-770D01*
X-970Y15603D01*
X-370Y15903D02*
X-770D01*
Y16003D01*
X-670Y16103D01*
X-370D01*
X-670D01*
X-770Y16203D01*
X-670Y16303D01*
X-370D01*
Y16503D02*
X-770D01*
Y16603D01*
X-670Y16703D01*
X-370D01*
X-670D01*
X-770Y16803D01*
X-670Y16903D01*
X-370D01*
Y17103D02*
X-570Y17303D01*
X-770D01*
X-970Y17103D01*
X11905Y-490D02*
X12305D01*
Y-590D01*
X11905Y-990D01*
Y-1090D01*
X12504Y-590D02*
X12604Y-490D01*
X12804D01*
X12904Y-590D01*
Y-690D01*
X12804Y-790D01*
X12704D01*
X12804D01*
X12904Y-890D01*
Y-990D01*
X12804Y-1090D01*
X12604D01*
X12504Y-990D01*
X13104Y-1090D02*
Y-990D01*
X13204D01*
Y-1090D01*
X13104D01*
X13604Y-590D02*
X13704Y-490D01*
X13904D01*
X14004Y-590D01*
Y-990D01*
X13904Y-1090D01*
X13704D01*
X13604Y-990D01*
Y-590D01*
X14204D02*
X14304Y-490D01*
X14504D01*
X14604Y-590D01*
Y-990D01*
X14504Y-1090D01*
X14304D01*
X14204Y-990D01*
Y-590D01*
X15603Y-1090D02*
X15404Y-890D01*
Y-690D01*
X15603Y-490D01*
X15903Y-1090D02*
Y-690D01*
X16003D01*
X16103Y-790D01*
Y-1090D01*
Y-790D01*
X16203Y-690D01*
X16303Y-790D01*
Y-1090D01*
X16503D02*
Y-690D01*
X16603D01*
X16703Y-790D01*
Y-1090D01*
Y-790D01*
X16803Y-690D01*
X16903Y-790D01*
Y-1090D01*
X17103D02*
X17303Y-890D01*
Y-690D01*
X17103Y-490D01*
M02*
