G04 Layer_Color=8388736*
%FSLAX24Y24*%
%MOIN*%
G70*
G01*
G75*
%ADD25R,0.0444X0.0444*%
%ADD26R,0.0444X0.0444*%
%ADD27C,0.0641*%
%ADD28R,0.0641X0.0641*%
%ADD29R,0.0641X0.0641*%
%ADD30C,0.0641*%
%ADD31C,0.0837*%
%ADD32C,0.1231*%
D25*
X15240Y3953D02*
D03*
Y4740D02*
D03*
Y6394D02*
D03*
Y5606D02*
D03*
X14040Y15033D02*
D03*
Y15820D02*
D03*
Y17387D02*
D03*
Y16600D02*
D03*
D26*
X10376Y8470D02*
D03*
X11164D02*
D03*
X6856Y12060D02*
D03*
X7644D02*
D03*
X10376Y14675D02*
D03*
X11164D02*
D03*
X6856D02*
D03*
X7644D02*
D03*
X10376Y20880D02*
D03*
X11164D02*
D03*
X6856Y20890D02*
D03*
X7644D02*
D03*
D27*
X2760Y4120D02*
D03*
X24770Y14600D02*
D03*
Y13600D02*
D03*
Y12600D02*
D03*
Y11600D02*
D03*
Y10600D02*
D03*
Y9600D02*
D03*
Y8600D02*
D03*
Y23600D02*
D03*
Y22600D02*
D03*
Y21600D02*
D03*
Y20600D02*
D03*
Y19600D02*
D03*
Y18600D02*
D03*
Y17600D02*
D03*
X26170Y23600D02*
D03*
X13850Y4170D02*
D03*
X1700Y21250D02*
D03*
Y20250D02*
D03*
Y19250D02*
D03*
Y18250D02*
D03*
Y17250D02*
D03*
Y16250D02*
D03*
Y15250D02*
D03*
Y14250D02*
D03*
Y13250D02*
D03*
Y12250D02*
D03*
X15180Y9600D02*
D03*
Y10600D02*
D03*
Y11600D02*
D03*
Y12600D02*
D03*
Y13600D02*
D03*
Y14600D02*
D03*
Y15600D02*
D03*
Y18600D02*
D03*
Y19600D02*
D03*
Y20600D02*
D03*
Y21600D02*
D03*
Y22600D02*
D03*
Y23600D02*
D03*
Y24600D02*
D03*
D28*
X2760Y6120D02*
D03*
X24770Y15600D02*
D03*
Y24600D02*
D03*
X26170D02*
D03*
X13850Y6170D02*
D03*
X1700Y22250D02*
D03*
X15180Y8600D02*
D03*
Y17600D02*
D03*
D29*
X17020Y24600D02*
D03*
D30*
Y23600D02*
D03*
Y22600D02*
D03*
Y21600D02*
D03*
Y20600D02*
D03*
Y19600D02*
D03*
Y18600D02*
D03*
Y17600D02*
D03*
Y16600D02*
D03*
Y15600D02*
D03*
Y14600D02*
D03*
Y13600D02*
D03*
Y12600D02*
D03*
Y11600D02*
D03*
Y10600D02*
D03*
Y9600D02*
D03*
Y8600D02*
D03*
Y7600D02*
D03*
Y6600D02*
D03*
Y5600D02*
D03*
X23020Y24600D02*
D03*
Y23600D02*
D03*
Y22600D02*
D03*
Y21600D02*
D03*
Y20600D02*
D03*
Y19600D02*
D03*
Y18600D02*
D03*
Y17600D02*
D03*
Y16600D02*
D03*
Y15600D02*
D03*
Y14600D02*
D03*
Y13600D02*
D03*
Y12600D02*
D03*
Y11600D02*
D03*
Y10600D02*
D03*
Y9600D02*
D03*
Y8600D02*
D03*
Y7600D02*
D03*
Y6600D02*
D03*
Y5600D02*
D03*
D31*
X8620Y10330D02*
D03*
X10390D02*
D03*
X6850D02*
D03*
X8620Y16575D02*
D03*
X10390D02*
D03*
X6850D02*
D03*
X8620Y22820D02*
D03*
X10390D02*
D03*
X6850D02*
D03*
D32*
X28346Y28346D02*
D03*
Y1181D02*
D03*
X1181D02*
D03*
Y28346D02*
D03*
M02*
