M48
;Layer_Color=9474304
;FILE_FORMAT=2:5
INCH,LZ
;TYPE=PLATED
T2F00S00C0.01200
T3F00S00C0.03366
T4F00S00C0.03543
T5F00S00C0.03937
;TYPE=NON_PLATED
T1F00S00C0.11811
%
T02
X00035Y00065
X00195
X00275
X00355
X00435
X00515
X00595
X00675
X00755
X00835
X00915
X00995
X01075
X01035Y00145
X00955
X00875
X00795
X00715
X00635
X00555
X00475
X00395
X00315
X00235
X00275Y00225
X00355
X00435
X00515
X00595
X00675
X00755
X00835
X00915
X00995
X01075
X01035Y00305
X00955
X00875
X00795
X00715
X00635
X00555
X00475
X00395
X00315
X00235
X00155
X00075
X00115Y00385
X00195
X00235Y00465
X00315
X00395
X00475
X00555
X00635
X00715
X00755Y00545
X00675
X00595
X00515
X00435
X00355
X00275
X00195
X00115
X00035
X00075Y00465
X00155
X00035Y00385
Y00225
X00115
X00195
X00835Y00385
X00915
X00995
X01075
X01035Y00465
X00955
X00995Y00545
X01075
X01155
X01235
X01315
X01296Y00512
X01275Y00465
X01355
X01435
X01475Y00385
X01468Y00345
X01435Y00305
X01515
X01595
X01675
X01755
X01835
X01915
X01995
X02075
X02155
X02235
X02315
X02395
X02475
X02555
X02635
X02595Y00385
X02515
X02435
X02355
X02275
X02195
X02115
X02035
X01955
X01875
X01795
X01715
X01635
X01613Y00438
X01595Y00465
X01675
X01755
X01835
X01915
X01995
X02075
X02155
X02235
X02315
X02395
X02475
X02555
X02635
X02595Y00545
X02515
X02435
X02355
X02195
X02115
X02035
X01955
X01875
X01795
X01641Y00521
X01635Y00225
X01715
X01795
X01875
X01955
X02035
X02115
X02195
X02275
X02355
X02435
X02515
X02595
X02635Y00145
X02555
X02475
X02395
X02315
X02235
X02155
X02075
X01995
X01915
X01835
X01755
X01675
X01595
X01515
X01435
X01355
X01275
X01195
X01115
X01155Y00225
X01235
X01315
X01395
X01475
X01555
Y00065
X01635
X01715
X01795
X01875
X01955
X02035
X02115
X02195
X02275
X02355
X02435
X02515
X02595
X01475
X01395
X01315
X01235
X01155
X01195Y00305
X01275
X01347Y00309
X01294Y00374
X01235Y00385
X01155
X01195Y00465
X01115
Y00305
X02715
X02795
X02875
X02835Y00385
X02755
X02675
X02715Y00465
X02795
X02875
X02835Y00545
X02755
X02675
Y00225
X02755
X02835
X02715Y00145
X02755Y00065
X02675
X02715Y00625
X02795
X02875
X02835Y00705
X02755
X02675
X02715Y00785
X02795
X02875
X02835Y00865
X02755
X02675
X02715Y00945
X02795
X02875
X02835Y01025
X02755
X02675
X02715Y01105
X02795
X02875
X02835Y01185
X02755
X02675
X02715Y01265
X02795
X02875
X02835Y01345
X02755
X02675
X02715Y01425
X02795
X02875
X02835Y01505
X02755
X02675
X02715Y01585
X02795
X02875
X02835Y01665
X02755
X02675
X02715Y01745
X02795
X02875
X02835Y01825
X02755
X02675
X02715Y01905
X02795
X02875
X02835Y01985
X02755
X02675
X02715Y02065
X02795
X02875
X02835Y02145
X02755
X02675
X02595
X02635Y02065
X02555
X02595Y01985
X02635Y01905
X02555
X02595Y01825
X02515
X02555Y01745
X02635
X02595Y01665
X02515
X02435
X02355
X02395Y01585
X02355Y01505
X02275
X02195
X02115
X02035
X01955
X01875
X01795
X01835Y01585
X01915
X01995
X02075
X02155
Y01425
X02235
X02195Y01345
X02115
X02035
X01955
X01875
X01795
X01835Y01425
X01915
X01995
X02075
Y01265
X02155
X02235
X02195Y01185
X02115
X02035
X01955
X01875
X01795
X01835Y01265
X01915
X01995
Y01105
X02075
X02155
X02235
X02195Y01025
X02115
X02035
X01955
X01875
X01795
X01835Y01105
X01915
Y00945
X01995
X02075
X02155
X02235
X02195Y00865
X02115
X02035
X01955
X01875
X01795
X01835Y00945
X01755
Y01105
Y01265
Y01425
Y01585
X01795Y01665
X01875
X01955
X02035
X02075Y01745
X01995
X01915
X01835
X01755
X01795Y01825
X01875
X01955
X02035
X02075Y01905
X01995
X01915
X01835
X01755
X01795Y01985
X01875
X01955
X02035
X02075Y02065
X01995
X01915
X01835
X01755
X01795Y02145
X01875
X01955
X02035
X01435Y02065
X01355
X01275
X01315Y02145
X01235
X01155
X01176Y02088
X0111637Y0202837
X01155Y01985
X01235
X01315
X01355Y01905
X01435
X01475Y01825
X01315
X01235
X01155
X01195Y01905
X01275
Y01745
X01355
X01315Y01665
X01235
X01155
X01195Y01745
X01115
Y01905
Y01585
X01195
X01275
X01355
X0134726Y0150326
X01315Y01505
X01235
X01155
X01176Y014675
X01195Y01425
X01275
X01355
X01435
X01475Y01505
X01395Y01345
X01315
X01235
X01155
X0111637Y0140787
X01115Y01265
X01195
X01275
X01355
X01435
X01395Y01185
X01315
X01235
X01155
X01195Y01105
X01275
X01355
X01435
X01475Y01025
X01395
X01315
X01235
X01155
X01195Y00945
X01275
X01355
X01435
X01395Y00865
X01315
X01235
X01176Y00847
X01195Y00785
X01275
X01355
X01349Y00731
X01315Y00705
X01296Y00678
X01275Y00625
X01195
X01115
X01155Y00705
X01235
X01395
X01444Y00707
X01475Y00705
X01555
X01619Y00759
X01595Y00785
X01515
X01435
X01755
X01835
X01915
X01995
X02075
X02155
X02235
X02275Y00705
X02195
X02115
X02035
X01955
X01875
X01795
X01835Y00625
X01915
X01995
X02075
X02155
X02235
X02475
X02555
X02635
X02595Y00705
X02515
X02555Y00785
X02635
X02595Y00865
X02635Y00945
X02555
X02595Y01025
X02515
X02555Y01105
X02635
X02595Y01185
X02635Y01265
X02555
X02595Y01345
X02635Y01425
X02555
X02595Y01505
X02515
X02555Y01585
X02635
X01755Y00625
X0111637Y0078737
X01115Y00945
Y01105
X00955
X00875
X00795
X00755Y01025
X00795Y00945
X00875
X00955
X00915Y00865
X00835
X00755
X00675
X00595
X00515
X00435
X00355
X00275
X00195
X00115
X00035
X00075Y00945
X00155
X00235
X00315
X00395
X00475
X00555
X00635
X00715
Y00785
X00795
X00875
X00955
X00915Y00705
X00835
X00755
X00675
X00595
X00515
X00435
X00355
X00275
X00195
X00115
X00035
X00075Y00785
X00155
X00235
X00315
X00395
X00475
X00555
X00635
Y00625
X00715
X00795
X00875
X00555
X00475
X00395
X00155
X00075
X00115Y01025
X00195
X00275
X00355
X00435
X00515
X00595
X00635Y01105
X00555
X00475
X00395
X00315
X00235
X00155
X00075
X00115Y01185
X00195
X00275
X00355
X00435
X00515
X00595
X00555Y01265
X00475
X00395
X00315
X00235
Y01425
X00315
X00395
Y01585
X00475
X00555
X00635
X00595Y01665
X00515
X00435
X00355
X00395Y01745
X00475
X00555
X00635
X00715
X00795
X00875
X00955
X00915Y01825
X00835
X00755
X00675
X00595
X00515
X00435
X00355
X00275
X00315Y01905
X00395
X00475
X00555
X00635
X00715
X00795
X00875
X00955
X00915Y01985
X00835
X00755
X0076437Y0202937
X00824Y02089
X00835Y02145
X00915
X00955Y02065
X00875
X00755Y02145
X00595
X00515
Y01985
X00595
X00675
X00435
X00355
X00275
X00315Y02065
X00235
Y01905
Y01745
X00315
X00075
X00115Y01825
X00035
X00075Y01905
X00115Y01985
X00035
X00075Y02065
X00115Y02145
X00035
Y01665
X00115
X00075Y01585
X00115Y01505
X00035
X00075Y01425
X00115Y01345
X00035
X00075Y01265
X00035Y01185
Y01025
X00275Y01505
X00755
X00835
X00824Y014675
X00795Y01425
X0076437Y0140787
X00715Y01425
X00755Y01345
X00835
X00915
X00955Y01425
X00875
X00915Y01505
X00955Y01585
X00875
X00795
X00755Y01665
X00675Y01345
X00715Y01265
X0076437Y0126563
X00875Y01265
X00955
X00915Y01185
X00824Y01206
X00795Y02225
X00875
X00955
X00915Y02305
X00955Y02385
X00875
X00795
X00715
X00635
X00555
X00475
X00395
X00435Y02305
X00515
X00595
X00635Y02225
X00555
X00475
X00395
X00315
X00235
X00075
X00115Y02305
X00035
X00075Y02385
X00155
X00195Y02465
X00275
X00315Y02545
X00395
X00475
X00555
X00635
X00715
X00795
X00875
X00955
X01035
X01075Y02625
X00995
X00915
X00835
X00755
X00675
X00595
X00515
X00435
X00355
X00275
X00195
X00115
X00035
X00075Y02705
X00155
X00235
X00315
X00395
X00475
X00555
X00635
X00715
X00795
X00875
X00955
X01035
X01075Y02785
X00995
X00915
X00835
X00755
X00675
X00595
X00515
X00435
X00355
X00275
X00195
X00235Y02865
X00315
X00395
X00475
X00555
X00635
X00715
X00795
X00875
X00955
X01035
X00755Y02305
X00355
X00235Y02545
X00155
X00075
X00115Y02465
X00035
Y02785
X01155
X01235
X01315
X01395
X01475
X01555
X01635
X01715
X01795
X01875
X01955
X02035
X02115
X02195
X02275
X02355
X02435
X02515
X02595
X02635Y02865
X02555
X02475
X02395
X02315
X02235
X02155
X02075
X01995
X01915
X01835
X01755
X01675
X01595
X01515
X01435
X01355
X01275
X01195
X01115
Y02705
X01195
X01275
X01355
X01435
X01515
X01595
X01675
X01755
X01775Y02652
X01835Y02705
X01915
X01995
X02075
X02155
X02235
X02315
X02395
X02475
X02555
X02635
X02475Y02545
X02315
X02355Y02625
X02275
X02195
X02155Y02545
X02075
X01995
X01915
X01835
X01755
X01675
X01595
X01515
X01435
X01355
X01275
X01195
X01115
X01155Y02625
X01235
X01315
X01395
X01315Y02465
X01235
X01155
X01195Y02385
X01275
X01355
X01435
X01475Y02305
X01435Y02225
X01355
X01275
X01195
X01115
X01155Y02305
X01235
X01315
X01115Y02385
X01755
X01835
X01915
X01995
X02075
X02035Y02465
X01955
X01875
X01795
Y02305
X01875
X01955
X02035
X02075Y02225
X01995
X01915
X01835
X01755
X02555
X02635
X02595Y02305
X02515
X02555Y02385
X02715
X02795
X02875
X02835Y02465
X02755
X02675
X02715Y02545
X02795
X02875
X02835Y02625
X02755
X02675
X02715Y02705
X02795
X02875
X02755Y02785
X02675
X02715Y02865
X02755Y02305
X02835
X02875Y02225
X02795
X02715
X02675Y02305
T03
X00276Y00412
Y00612
T04
X01385Y00417
X01702Y0056
X02302
Y0066
Y0076
Y0086
Y0096
Y0106
Y0116
Y0126
Y0136
Y0146
Y0156
Y0166
Y0176
Y0186
Y0196
Y0206
X02477
Y0196
Y0186
Y0176
Y0156
Y0146
Y0136
Y0126
Y0116
Y0106
Y0096
Y0086
X01702
Y0096
Y0106
Y0116
Y0126
Y0136
Y0146
Y0156
Y0166
Y0176
Y0186
Y0196
Y0206
X01518
Y0196
Y0186
Y0176
Y0156
Y0146
Y0136
Y0126
Y0116
Y0106
Y0096
Y0086
X01702Y0076
Y0066
X01385Y00617
X0017Y01225
Y01325
Y01425
Y01525
Y01625
Y01725
Y01825
Y01925
Y02025
Y02125
Y02225
X01518Y0226
Y0216
X01702
Y0226
Y0236
Y0246
X01518
Y0236
X02302
Y0246
X02477
Y0236
Y0226
Y0216
X02302
Y0226
X02617Y0236
Y0246
T05
X00685Y01033
X00862
X01039
Y016575
X00862
X00685
Y02282
X00862
X01039
T01
X0011811Y0011811
X0283465
X0011811Y0283465
X0283465
M30
